<?xml version="1.0" standalone="no"?>
<!DOCTYPE svg PUBLIC "-//W3C//DTD SVG 20010904//EN"
 "http://www.w3.org/TR/2001/REC-SVG-20010904/DTD/svg10.dtd">
<svg version="1.0" xmlns="http://www.w3.org/2000/svg"
 width="363.000000pt" height="192.000000pt" viewBox="0 0 363.000000 192.000000"
 preserveAspectRatio="xMidYMid meet">

<g transform="translate(0.000000,192.000000) scale(0.100000,-0.100000)"
fill="#000000" stroke="none">
<path d="M2195 1734 c-22 -2 -116 -8 -210 -14 -802 -52 -1462 -185 -1840 -373
-44 -21 -95 -50 -112 -63 l-33 -25 52 -82 c28 -45 62 -99 75 -119 l23 -38 49
30 c344 212 985 359 1896 437 248 21 988 29 1129 13 138 -16 196 -29 196 -45
0 -26 -89 -50 -505 -135 -268 -55 -388 -81 -515 -111 -596 -142 -1199 -384
-1305 -523 -31 -41 -32 -80 -3 -100 48 -34 230 -19 548 43 374 74 641 110 723
97 26 -4 47 -12 47 -17 0 -18 -94 -71 -350 -196 -284 -139 -362 -187 -451
-275 -102 -101 -109 -159 -25 -194 55 -23 331 -34 324 -13 -3 11 -37 15 -134
19 -131 6 -168 16 -177 50 -6 25 6 48 47 91 79 80 192 143 531 295 297 132
398 215 354 292 -48 86 -257 94 -634 26 -126 -22 -508 -95 -532 -101 -41 -9
-24 14 25 35 26 11 101 44 167 72 345 149 721 255 1310 370 204 40 407 91 521
131 164 57 224 107 224 185 0 38 -6 51 -41 89 -73 79 -200 127 -379 145 -85 8
-894 11 -995 4z"/>
</g>
</svg>
